<svg width="2283" height="543" viewBox="0 0 2283 543" fill="none" xmlns="http://www.w3.org/2000/svg">
<path d="M122.72 26.2959H0.890137V148.126H122.72V26.2959Z" fill="url(#paint0_linear)"/>
<path d="M514 420.242H392.169V542.072H514V420.242Z" fill="url(#paint1_linear)"/>
<path d="M392.169 223.716V305.529C392.169 325.982 384.165 345.546 369.937 360.664L333.477 398.013C319.248 413.131 299.684 421.134 278.342 421.134H277.453H195.64V542.965H317.47V459.373C317.47 439.809 326.363 421.134 339.702 406.906L377.051 368.667C391.279 354.439 410.843 345.546 431.297 345.546H432.186H513.11V223.716H392.169Z" fill="url(#paint2_linear)"/>
<path d="M392.17 26.2959V108.109C392.17 128.562 384.166 148.126 369.938 162.354L333.478 199.704C319.25 214.822 299.686 222.825 278.343 222.825H196.53V304.638C196.53 325.091 188.527 344.655 174.298 358.884L137.838 396.233C123.61 411.351 104.046 419.354 82.7032 419.354H0.890137C0.890137 486.05 55.1358 541.185 122.72 541.185V460.261C122.72 459.372 122.72 459.372 122.72 458.482C122.72 438.029 130.724 419.354 144.952 405.126L182.302 366.887C196.53 352.659 216.094 343.766 236.547 343.766H318.36V262.842C318.36 242.389 326.364 222.825 341.481 207.707L378.831 169.469C393.059 155.24 411.734 147.237 431.298 146.348H514C514 80.5415 459.754 26.2959 392.17 26.2959Z" fill="url(#paint3_linear)"/>
<path d="M318.359 26.2959H196.529V112.555C195.64 131.23 187.636 149.016 174.297 162.355L137.837 199.704C123.609 214.822 104.045 222.825 82.7023 222.825H81.8131H0V344.656H121.83V263.732C121.83 262.842 121.83 262.843 121.83 261.953C121.83 241.5 130.723 222.825 144.951 208.597L182.301 170.358C196.529 156.13 216.093 147.237 236.546 147.237H317.47V26.2959H318.359Z" fill="url(#paint4_linear)"/>
<path d="M664.044 139.474C690.844 139.474 703.306 123.93 703.306 97.934V47.818H683.742V97.532C683.742 113.21 677.31 120.848 664.044 120.848C650.778 120.848 644.346 113.21 644.346 97.532V47.818H624.782V97.934C624.782 123.93 637.11 139.474 664.044 139.474ZM755.757 88.286C766.611 88.286 771.569 96.996 771.569 107.18V138H790.597V104.902C790.597 85.472 778.939 69.794 755.757 69.794C732.575 69.794 721.185 85.606 721.185 104.902V138H740.213V107.18C740.213 96.996 745.037 88.286 755.757 88.286ZM818.699 61.754C825.131 61.754 830.357 56.528 830.357 49.962C830.357 43.53 825.131 38.17 818.699 38.17C812.267 38.17 806.907 43.53 806.907 49.962C806.907 56.528 812.267 61.754 818.699 61.754ZM809.185 71.67V138H828.213V71.67H809.185ZM879.372 139.876C900.142 139.876 915.418 125.002 915.418 104.902V41.118H896.39L896.256 76.092C891.432 72.206 885 69.794 878.3 69.794C857.664 69.794 843.46 84.266 843.46 104.902C843.46 124.064 859.004 139.876 879.372 139.876ZM879.372 121.92C869.59 121.92 862.488 114.282 862.488 104.902C862.488 95.522 869.59 87.75 879.372 87.75C889.154 87.75 896.39 95.522 896.39 104.902C896.39 114.282 889.154 121.92 879.372 121.92ZM943.539 61.754C949.971 61.754 955.197 56.528 955.197 49.962C955.197 43.53 949.971 38.17 943.539 38.17C937.107 38.17 931.747 43.53 931.747 49.962C931.747 56.528 937.107 61.754 943.539 61.754ZM934.025 71.67V138H953.053V71.67H934.025ZM990.677 138V100.614C990.677 92.708 995.233 87.884 1002.74 87.884C1006.22 87.884 1010.11 88.822 1013.32 90.698V72.206C1009.97 70.732 1005.28 69.928 1001 69.928C981.297 69.928 971.649 82.926 971.649 99.944V138H990.677ZM1055.51 139.742C1069.58 139.742 1080.57 132.908 1086.33 120.982L1071.73 113.612C1068.65 119.776 1062.62 123.26 1055.38 123.26C1045.87 123.26 1039.03 117.364 1037.69 108.52H1087V102.892C1087 84.802 1074.81 69.258 1053.77 69.258C1033.27 69.258 1019.33 85.07 1019.33 104.232C1019.33 125.404 1034.88 139.742 1055.51 139.742ZM1038.5 97.934C1039.84 91.234 1045.33 85.874 1053.64 85.874C1061.68 85.874 1067.31 91.1 1068.11 97.934H1038.5ZM1133.23 139.742C1145.96 139.608 1157.75 133.846 1163.78 120.982L1148.11 112.406C1145.16 118.168 1139.8 121.786 1133.23 121.786C1123.72 121.786 1116.62 114.148 1116.62 104.768C1116.62 95.388 1123.72 87.75 1133.23 87.75C1139.8 87.75 1145.16 91.368 1148.11 97.13L1163.78 88.554C1157.75 75.69 1145.96 69.928 1133.23 69.794C1113.27 69.66 1097.59 85.472 1097.59 104.768C1097.59 123.93 1113.27 139.876 1133.23 139.742ZM1209.31 139.876C1214 139.876 1219.76 138.804 1223.11 136.66V119.642C1219.89 121.652 1214.93 122.858 1211.05 122.858C1204.08 122.858 1199.66 118.57 1199.66 111.2V87.75H1223.11V71.67H1199.66V54.786H1180.63V71.67H1168.44V87.75H1180.63V111.736C1180.63 128.352 1190.14 139.876 1209.31 139.876ZM1248.96 61.754C1255.4 61.754 1260.62 56.528 1260.62 49.962C1260.62 43.53 1255.4 38.17 1248.96 38.17C1242.53 38.17 1237.17 43.53 1237.17 49.962C1237.17 56.528 1242.53 61.754 1248.96 61.754ZM1239.45 71.67V138H1258.48V71.67H1239.45ZM1309.64 139.742C1330.01 139.742 1345.68 123.93 1345.68 104.634C1345.68 85.606 1330.14 69.66 1309.64 69.66C1289.4 69.66 1273.73 85.472 1273.73 104.634C1273.73 123.93 1289.27 139.742 1309.64 139.742ZM1309.64 121.92C1299.86 121.92 1292.75 114.148 1292.75 104.768C1292.75 95.388 1299.86 87.616 1309.64 87.616C1319.42 87.616 1326.66 95.388 1326.66 104.768C1326.66 114.148 1319.42 121.92 1309.64 121.92ZM1392.91 88.286C1403.76 88.286 1408.72 96.996 1408.72 107.18V138H1427.75V104.902C1427.75 85.472 1416.09 69.794 1392.91 69.794C1369.73 69.794 1358.34 85.606 1358.34 104.902V138H1377.37V107.18C1377.37 96.996 1382.19 88.286 1392.91 88.286ZM1473.14 139.742C1482.25 139.742 1489.49 136.124 1494.18 130.228V138H1512.27V104.634C1512.27 84.668 1496.99 69.66 1476.22 69.66C1455.85 69.66 1440.31 85.606 1440.31 104.634C1440.31 123.93 1453.84 139.742 1473.14 139.742ZM1476.22 121.92C1466.44 121.92 1459.34 114.148 1459.34 104.768C1459.34 95.388 1466.44 87.616 1476.22 87.616C1486 87.616 1493.24 95.388 1493.24 104.768C1493.24 114.148 1486 121.92 1476.22 121.92ZM1530.87 41.118V138H1549.9V41.118H1530.87ZM1692.61 92.976C1692.61 65.774 1673.18 47.818 1643.97 47.818H1610.34V138H1643.57C1671.98 138 1692.61 120.714 1692.61 92.976ZM1672.51 92.976C1672.51 109.86 1660.45 120.446 1643.57 120.446H1629.9V65.908H1643.97C1660.99 65.908 1672.51 76.762 1672.51 92.976ZM1736.17 139.742C1745.28 139.742 1752.51 136.124 1757.2 130.228V138H1775.29V104.634C1775.29 84.668 1760.02 69.66 1739.25 69.66C1718.88 69.66 1703.34 85.606 1703.34 104.634C1703.34 123.93 1716.87 139.742 1736.17 139.742ZM1739.25 121.92C1729.47 121.92 1722.36 114.148 1722.36 104.768C1722.36 95.388 1729.47 87.616 1739.25 87.616C1749.03 87.616 1756.27 95.388 1756.27 104.768C1756.27 114.148 1749.03 121.92 1739.25 121.92ZM1825.39 139.876C1830.08 139.876 1835.84 138.804 1839.19 136.66V119.642C1835.98 121.652 1831.02 122.858 1827.13 122.858C1820.17 122.858 1815.74 118.57 1815.74 111.2V87.75H1839.19V71.67H1815.74V54.786H1796.72V71.67H1784.52V87.75H1796.72V111.736C1796.72 128.352 1806.23 139.876 1825.39 139.876ZM1881.68 139.742C1890.79 139.742 1898.03 136.124 1902.72 130.228V138H1920.81V104.634C1920.81 84.668 1905.53 69.66 1884.76 69.66C1864.4 69.66 1848.85 85.606 1848.85 104.634C1848.85 123.93 1862.39 139.742 1881.68 139.742ZM1884.76 121.92C1874.98 121.92 1867.88 114.148 1867.88 104.768C1867.88 95.388 1874.98 87.616 1884.76 87.616C1894.55 87.616 1901.78 95.388 1901.78 104.768C1901.78 114.148 1894.55 121.92 1884.76 121.92ZM1997.2 138V107.448H2039.28V89.492H1997.2V65.908H2042.36V47.818H1994.92C1982.6 47.818 1977.64 54.384 1977.64 64.702V138H1997.2ZM2056.8 41.118V138H2075.83V41.118H2056.8ZM2126.98 139.742C2147.35 139.742 2163.03 123.93 2163.03 104.634C2163.03 85.606 2147.49 69.66 2126.98 69.66C2106.75 69.66 2091.07 85.472 2091.07 104.634C2091.07 123.93 2106.62 139.742 2126.98 139.742ZM2126.98 121.92C2117.2 121.92 2110.1 114.148 2110.1 104.768C2110.1 95.388 2117.2 87.616 2126.98 87.616C2136.77 87.616 2144 95.388 2144 104.768C2144 114.148 2136.77 121.92 2126.98 121.92ZM2198.63 139.876C2206.4 139.876 2212.3 135.186 2214.57 125.806L2224.49 86.276C2224.49 86.276 2224.36 86.142 2224.62 86.142C2225.03 86.142 2224.89 86.276 2224.89 86.276L2234.81 125.806C2237.22 135.186 2242.98 139.876 2250.75 139.876C2257.99 139.876 2265.63 135.454 2267.77 125.806L2279.97 71.67H2262.41L2251.29 122.188C2251.29 122.456 2251.29 122.59 2250.89 122.59C2250.49 122.59 2250.49 122.456 2250.49 122.322L2240.7 83.596C2238.43 74.35 2233.07 69.66 2224.76 69.66C2216.58 69.66 2211.09 74.35 2208.54 83.864L2198.76 122.322C2198.76 122.322 2198.9 122.456 2198.49 122.456C2197.96 122.456 2198.09 122.456 2198.09 122.188L2186.57 71.67H2168.75L2181.48 125.806C2183.75 135.32 2191.26 139.876 2198.63 139.876Z" fill="url(#paint5_linear)"/>
<path d="M734.16 543C796.657 543 847.071 503.427 847.071 451.773C847.071 384.29 788.741 368.461 747.076 362.213C719.578 358.047 701.245 353.048 701.245 337.219C701.245 325.555 711.245 319.724 729.577 319.724C755.826 319.724 770.825 330.971 778.741 344.717L842.904 312.642C823.739 270.986 782.074 248.908 732.91 248.908C670.414 248.908 624.166 288.482 624.166 340.135C624.166 407.201 685.83 423.447 727.911 429.696C753.326 433.445 769.992 435.944 769.992 452.606C769.992 465.936 754.576 472.185 734.16 472.185C707.912 472.185 692.079 464.27 684.163 447.191L620 479.266C639.166 520.922 680.83 543 734.16 543Z" fill="#3A3A3A"/>
<path d="M960.225 543C986.474 543 1008.56 526.338 1016.89 493.013L1040.22 400.536L1063.97 493.013C1072.3 526.338 1093.97 543 1120.22 543C1145.21 543 1174.8 527.171 1182.3 493.013L1218.96 328.055H1149.8L1121.05 462.604L1097.3 370.544C1088.97 337.636 1069.8 321.39 1040.64 321.39C1011.47 321.39 991.89 338.052 983.14 371.377L959.392 463.02L928.977 328.055H858.981L898.145 493.013C906.061 527.171 935.226 543 960.225 543Z" fill="#3A3A3A"/>
<path d="M1289.7 305.977C1314.28 305.977 1334.7 285.566 1334.7 260.989C1334.7 236.411 1314.28 216 1289.7 216C1265.12 216 1244.7 236.411 1244.7 260.989C1244.7 285.566 1265.12 305.977 1289.7 305.977ZM1252.2 328.055V536.335H1327.2V328.055H1252.2Z" fill="#3A3A3A"/>
<path d="M1475.24 536.335V390.539H1535.24V328.055H1475.24V325.139C1475.24 305.144 1487.32 293.897 1506.9 293.897C1517.32 293.897 1529.82 296.813 1539.82 302.228V234.329C1529.4 229.746 1513.99 227.247 1499.82 227.247C1431.91 227.247 1400.24 271.403 1400.24 326.805V328.055H1364.83V390.539H1400.24V536.335H1475.24Z" fill="#3A3A3A"/>
<path d="M1683.22 543C1697.39 543 1716.56 540.084 1726.97 534.252V468.019C1716.97 473.434 1700.72 476.35 1690.31 476.35C1670.73 476.35 1658.64 465.103 1658.64 445.108V390.539H1726.97V328.055H1658.64V275.985H1583.65V328.055H1548.23V390.539H1583.65V447.608C1583.65 503.01 1615.31 543 1683.22 543Z" fill="#3A3A3A"/>
<path d="M2011.13 541.334C2099.04 541.334 2139.46 492.596 2139.46 409.284V255.157H2062.38V407.201C2062.38 450.524 2045.71 468.436 2011.13 468.436C1976.97 468.436 1960.3 450.524 1960.3 407.201V255.157H1883.22V409.284C1883.22 492.596 1922.8 541.334 2011.13 541.334Z" fill="#3A3A3A"/>
<path d="M2199.92 255.157V536.335H2277V255.157H2199.92Z" fill="#3A3A3A"/>
<defs>
<linearGradient id="paint0_linear" x1="0.890137" y1="87.2109" x2="122.72" y2="87.2109" gradientUnits="userSpaceOnUse">
<stop stop-color="#434343"/>
<stop offset="1"/>
</linearGradient>
<linearGradient id="paint1_linear" x1="392.169" y1="481.157" x2="514" y2="481.157" gradientUnits="userSpaceOnUse">
<stop stop-color="#434343"/>
<stop offset="1"/>
</linearGradient>
<linearGradient id="paint2_linear" x1="195.64" y1="383.34" x2="513.11" y2="383.34" gradientUnits="userSpaceOnUse">
<stop stop-color="#434343"/>
<stop offset="1"/>
</linearGradient>
<linearGradient id="paint3_linear" x1="257.445" y1="26.2959" x2="257.445" y2="541.185" gradientUnits="userSpaceOnUse">
<stop stop-color="#F9D523"/>
<stop offset="1" stop-color="#FAA328"/>
</linearGradient>
<linearGradient id="paint4_linear" x1="0" y1="185.476" x2="318.359" y2="185.476" gradientUnits="userSpaceOnUse">
<stop stop-color="#434343"/>
<stop offset="1"/>
</linearGradient>
<linearGradient id="paint5_linear" x1="2438.5" y1="0.000368984" x2="545" y2="188" gradientUnits="userSpaceOnUse">
<stop stop-color="#F9D523"/>
<stop offset="1" stop-color="#FAA328"/>
</linearGradient>
</defs>
</svg>
