<svg width="2280" height="517" viewBox="0 0 2280 517" fill="none" xmlns="http://www.w3.org/2000/svg">
<path d="M122.72 0.295898H0.890137V122.126H122.72V0.295898Z" fill="url(#paint0_linear)"/>
<path d="M514 394.242H392.169V516.072H514V394.242Z" fill="url(#paint1_linear)"/>
<path d="M392.169 197.716V279.529C392.169 299.982 384.165 319.546 369.937 334.664L333.477 372.013C319.248 387.131 299.684 395.134 278.342 395.134H277.453H195.64V516.965H317.47V433.373C317.47 413.809 326.363 395.134 339.702 380.906L377.051 342.667C391.279 328.439 410.843 319.546 431.297 319.546H432.186H513.11V197.716H392.169Z" fill="url(#paint2_linear)"/>
<path d="M392.17 0.295898V82.1088C392.17 102.562 384.166 122.126 369.938 136.354L333.478 173.704C319.25 188.822 299.686 196.825 278.343 196.825H196.53V278.638C196.53 299.091 188.527 318.655 174.298 332.884L137.838 370.233C123.61 385.351 104.046 393.354 82.7032 393.354H0.890137C0.890137 460.05 55.1358 515.185 122.72 515.185V434.261C122.72 433.372 122.72 433.372 122.72 432.482C122.72 412.029 130.724 393.354 144.952 379.126L182.302 340.887C196.53 326.659 216.094 317.766 236.547 317.766H318.36V236.842C318.36 216.389 326.364 196.825 341.481 181.707L378.831 143.469C393.059 129.24 411.734 121.237 431.298 120.348H514C514 54.5415 459.754 0.295898 392.17 0.295898Z" fill="url(#paint3_linear)"/>
<path d="M318.359 0.295898H196.529V86.5553C195.64 105.23 187.636 123.016 174.297 136.355L137.837 173.704C123.609 188.822 104.045 196.825 82.7023 196.825H81.8131H0V318.656H121.83V237.732C121.83 236.842 121.83 236.843 121.83 235.953C121.83 215.5 130.723 196.825 144.951 182.597L182.301 144.358C196.529 130.13 216.093 121.237 236.546 121.237H317.47V0.295898H318.359Z" fill="url(#paint4_linear)"/>
<path d="M664.044 101.474C690.844 101.474 703.306 85.9299 703.306 59.9339V9.81792H683.742V59.5319C683.742 75.2099 677.31 82.8479 664.044 82.8479C650.778 82.8479 644.346 75.2099 644.346 59.5319V9.81792H624.782V59.9339C624.782 85.9299 637.11 101.474 664.044 101.474Z" fill="url(#paint5_linear)"/>
<path d="M755.757 50.2859C766.611 50.2859 771.569 58.9959 771.569 69.1799V99.9999H790.597V66.9019C790.597 47.4719 778.939 31.7939 755.757 31.7939C732.575 31.7939 721.185 47.6059 721.185 66.9019V99.9999H740.213V69.1799C740.213 58.9959 745.037 50.2859 755.757 50.2859Z" fill="url(#paint6_linear)"/>
<path d="M818.699 23.7539C825.131 23.7539 830.357 18.5279 830.357 11.9619C830.357 5.52992 825.131 0.169922 818.699 0.169922C812.267 0.169922 806.907 5.52992 806.907 11.9619C806.907 18.5279 812.267 23.7539 818.699 23.7539ZM809.185 33.6699V99.9999H828.213V33.6699H809.185Z" fill="url(#paint7_linear)"/>
<path d="M879.372 101.876C900.142 101.876 915.418 87.0019 915.418 66.9019V3.11792H896.39L896.256 38.0919C891.432 34.2059 885 31.7939 878.3 31.7939C857.664 31.7939 843.46 46.2659 843.46 66.9019C843.46 86.0639 859.004 101.876 879.372 101.876ZM879.372 83.9199C869.59 83.9199 862.488 76.2819 862.488 66.9019C862.488 57.5219 869.59 49.7499 879.372 49.7499C889.154 49.7499 896.39 57.5219 896.39 66.9019C896.39 76.2819 889.154 83.9199 879.372 83.9199Z" fill="url(#paint8_linear)"/>
<path d="M943.539 23.7539C949.971 23.7539 955.197 18.5279 955.197 11.9619C955.197 5.52992 949.971 0.169922 943.539 0.169922C937.107 0.169922 931.747 5.52992 931.747 11.9619C931.747 18.5279 937.107 23.7539 943.539 23.7539ZM934.025 33.6699V99.9999H953.053V33.6699H934.025Z" fill="url(#paint9_linear)"/>
<path d="M990.678 99.9999V62.6139C990.678 54.7079 995.234 49.8839 1002.74 49.8839C1006.22 49.8839 1010.11 50.8219 1013.32 52.6979V34.2059C1009.97 32.7319 1005.28 31.9279 1001 31.9279C981.298 31.9279 971.65 44.9259 971.65 61.9439V99.9999H990.678Z" fill="url(#paint10_linear)"/>
<path d="M1055.51 101.742C1069.58 101.742 1080.57 94.9079 1086.33 82.9819L1071.73 75.6119C1068.65 81.7759 1062.62 85.2599 1055.38 85.2599C1045.87 85.2599 1039.03 79.3639 1037.69 70.5199H1087V64.8919C1087 46.8019 1074.81 31.2579 1053.77 31.2579C1033.27 31.2579 1019.33 47.0699 1019.33 66.2319C1019.33 87.4039 1034.88 101.742 1055.51 101.742ZM1038.5 59.9339C1039.84 53.2339 1045.33 47.8739 1053.64 47.8739C1061.68 47.8739 1067.31 53.0999 1068.11 59.9339H1038.5Z" fill="url(#paint11_linear)"/>
<path d="M1133.23 101.742C1145.96 101.608 1157.75 95.8459 1163.78 82.9819L1148.11 74.4059C1145.16 80.1679 1139.8 83.7859 1133.23 83.7859C1123.72 83.7859 1116.62 76.1479 1116.62 66.7679C1116.62 57.3879 1123.72 49.7499 1133.23 49.7499C1139.8 49.7499 1145.16 53.3679 1148.11 59.1299L1163.78 50.5539C1157.75 37.6899 1145.96 31.9279 1133.23 31.7939C1113.27 31.6599 1097.59 47.4719 1097.59 66.7679C1097.59 85.9299 1113.27 101.876 1133.23 101.742Z" fill="url(#paint12_linear)"/>
<path d="M1209.31 101.876C1214 101.876 1219.76 100.804 1223.11 98.6599V81.6419C1219.89 83.6519 1214.93 84.8579 1211.05 84.8579C1204.08 84.8579 1199.66 80.5699 1199.66 73.1999V49.7499H1223.11V33.6699H1199.66V16.7859H1180.63V33.6699H1168.44V49.7499H1180.63V73.7359C1180.63 90.3519 1190.14 101.876 1209.31 101.876Z" fill="url(#paint13_linear)"/>
<path d="M1248.96 23.7539C1255.4 23.7539 1260.62 18.5279 1260.62 11.9619C1260.62 5.52992 1255.4 0.169922 1248.96 0.169922C1242.53 0.169922 1237.17 5.52992 1237.17 11.9619C1237.17 18.5279 1242.53 23.7539 1248.96 23.7539ZM1239.45 33.6699V99.9999H1258.48V33.6699H1239.45Z" fill="url(#paint14_linear)"/>
<path d="M1309.64 101.742C1330.01 101.742 1345.68 85.9299 1345.68 66.6339C1345.68 47.6059 1330.14 31.6599 1309.64 31.6599C1289.4 31.6599 1273.73 47.4719 1273.73 66.6339C1273.73 85.9299 1289.27 101.742 1309.64 101.742ZM1309.64 83.9199C1299.86 83.9199 1292.75 76.1479 1292.75 66.7679C1292.75 57.3879 1299.86 49.6159 1309.64 49.6159C1319.42 49.6159 1326.66 57.3879 1326.66 66.7679C1326.66 76.1479 1319.42 83.9199 1309.64 83.9199Z" fill="url(#paint15_linear)"/>
<path d="M1392.91 50.2859C1403.77 50.2859 1408.72 58.9959 1408.72 69.1799V99.9999H1427.75V66.9019C1427.75 47.4719 1416.09 31.7939 1392.91 31.7939C1369.73 31.7939 1358.34 47.6059 1358.34 66.9019V99.9999H1377.37V69.1799C1377.37 58.9959 1382.19 50.2859 1392.91 50.2859Z" fill="url(#paint16_linear)"/>
<path d="M1473.14 101.742C1482.25 101.742 1489.49 98.1239 1494.18 92.2279V99.9999H1512.27V66.6339C1512.27 46.6679 1496.99 31.6599 1476.22 31.6599C1455.85 31.6599 1440.31 47.6059 1440.31 66.6339C1440.31 85.9299 1453.84 101.742 1473.14 101.742ZM1476.22 83.9199C1466.44 83.9199 1459.34 76.1479 1459.34 66.7679C1459.34 57.3879 1466.44 49.6159 1476.22 49.6159C1486 49.6159 1493.24 57.3879 1493.24 66.7679C1493.24 76.1479 1486 83.9199 1476.22 83.9199Z" fill="url(#paint17_linear)"/>
<path d="M1530.87 3.11792V99.9999H1549.9V3.11792H1530.87Z" fill="url(#paint18_linear)"/>
<path d="M1692.61 54.9759C1692.61 27.7739 1673.18 9.81792 1643.97 9.81792H1610.34V99.9999H1643.57C1671.98 99.9999 1692.61 82.7139 1692.61 54.9759ZM1672.51 54.9759C1672.51 71.8599 1660.45 82.4459 1643.57 82.4459H1629.9V27.9079H1643.97C1660.99 27.9079 1672.51 38.7619 1672.51 54.9759Z" fill="url(#paint19_linear)"/>
<path d="M1736.17 101.742C1745.28 101.742 1752.51 98.1239 1757.2 92.2279V99.9999H1775.29V66.6339C1775.29 46.6679 1760.02 31.6599 1739.25 31.6599C1718.88 31.6599 1703.34 47.6059 1703.34 66.6339C1703.34 85.9299 1716.87 101.742 1736.17 101.742ZM1739.25 83.9199C1729.47 83.9199 1722.36 76.1479 1722.36 66.7679C1722.36 57.3879 1729.47 49.6159 1739.25 49.6159C1749.03 49.6159 1756.27 57.3879 1756.27 66.7679C1756.27 76.1479 1749.03 83.9199 1739.25 83.9199Z" fill="url(#paint20_linear)"/>
<path d="M1825.39 101.876C1830.08 101.876 1835.84 100.804 1839.19 98.6599V81.6419C1835.98 83.6519 1831.02 84.8579 1827.13 84.8579C1820.17 84.8579 1815.74 80.5699 1815.74 73.1999V49.7499H1839.19V33.6699H1815.74V16.7859H1796.72V33.6699H1784.52V49.7499H1796.72V73.7359C1796.72 90.3519 1806.23 101.876 1825.39 101.876Z" fill="url(#paint21_linear)"/>
<path d="M1881.68 101.742C1890.79 101.742 1898.03 98.1239 1902.72 92.2279V99.9999H1920.81V66.6339C1920.81 46.6679 1905.53 31.6599 1884.76 31.6599C1864.4 31.6599 1848.85 47.6059 1848.85 66.6339C1848.85 85.9299 1862.39 101.742 1881.68 101.742ZM1884.76 83.9199C1874.98 83.9199 1867.88 76.1479 1867.88 66.7679C1867.88 57.3879 1874.98 49.6159 1884.76 49.6159C1894.55 49.6159 1901.78 57.3879 1901.78 66.7679C1901.78 76.1479 1894.55 83.9199 1884.76 83.9199Z" fill="url(#paint22_linear)"/>
<path d="M1997.2 99.9999V69.4479H2039.28V51.4919H1997.2V27.9079H2042.36V9.81792H1994.92C1982.6 9.81792 1977.64 16.3839 1977.64 26.7019V99.9999H1997.2Z" fill="url(#paint23_linear)"/>
<path d="M2056.8 3.11792V99.9999H2075.83V3.11792H2056.8Z" fill="url(#paint24_linear)"/>
<path d="M2126.99 101.742C2147.35 101.742 2163.03 85.9299 2163.03 66.6339C2163.03 47.6059 2147.49 31.6599 2126.99 31.6599C2106.75 31.6599 2091.07 47.4719 2091.07 66.6339C2091.07 85.9299 2106.62 101.742 2126.99 101.742ZM2126.99 83.9199C2117.2 83.9199 2110.1 76.1479 2110.1 66.7679C2110.1 57.3879 2117.2 49.6159 2126.99 49.6159C2136.77 49.6159 2144 57.3879 2144 66.7679C2144 76.1479 2136.77 83.9199 2126.99 83.9199Z" fill="url(#paint25_linear)"/>
<path d="M2198.63 101.876C2206.4 101.876 2212.3 97.1859 2214.57 87.8059L2224.49 48.2759C2224.49 48.2759 2224.36 48.1419 2224.62 48.1419C2225.03 48.1419 2224.89 48.2759 2224.89 48.2759L2234.81 87.8059C2237.22 97.1859 2242.98 101.876 2250.76 101.876C2257.99 101.876 2265.63 97.4539 2267.77 87.8059L2279.97 33.6699H2262.41L2251.29 84.1879C2251.29 84.4559 2251.29 84.5899 2250.89 84.5899C2250.49 84.5899 2250.49 84.4559 2250.49 84.3219L2240.7 45.5959C2238.43 36.3499 2233.07 31.6599 2224.76 31.6599C2216.59 31.6599 2211.09 36.3499 2208.55 45.8639L2198.76 84.3219C2198.76 84.3219 2198.9 84.4559 2198.49 84.4559C2197.96 84.4559 2198.09 84.4559 2198.09 84.1879L2186.57 33.6699H2168.75L2181.48 87.8059C2183.76 97.3199 2191.26 101.876 2198.63 101.876Z" fill="url(#paint26_linear)"/>
<path d="M743.184 517C810.621 517 865.02 474.28 865.02 418.52C865.02 345.671 802.079 328.583 757.121 321.838C727.449 317.341 707.668 311.945 707.668 294.857C707.668 282.266 718.458 275.971 738.239 275.971C766.563 275.971 782.747 288.112 791.289 302.952L860.524 268.326C839.844 223.358 794.886 199.525 741.836 199.525C674.399 199.525 624.496 242.245 624.496 298.005C624.496 370.404 691.033 387.941 736.441 394.687C763.865 398.734 781.848 401.432 781.848 419.419C781.848 433.809 765.214 440.554 743.184 440.554C714.861 440.554 697.777 432.01 689.235 413.573L620 448.199C640.681 493.167 685.638 517 743.184 517Z" fill="#3A3A3A"/>
<path d="M987.119 517C1015.44 517 1039.27 499.013 1048.26 463.038L1073.44 363.209L1099.06 463.038C1108.06 499.013 1131.43 517 1159.76 517C1186.73 517 1218.65 499.912 1226.74 463.038L1266.31 284.964H1191.68L1160.66 430.212L1135.03 330.832C1126.04 295.307 1105.36 277.769 1073.89 277.769C1042.42 277.769 1021.29 295.757 1011.85 331.731L986.22 430.661L953.401 284.964H877.872L920.132 463.038C928.674 499.912 960.145 517 987.119 517Z" fill="#3A3A3A"/>
<path d="M1342.64 261.131C1369.17 261.131 1391.2 239.097 1391.2 212.566C1391.2 186.034 1369.17 164 1342.64 164C1316.12 164 1294.09 186.034 1294.09 212.566C1294.09 239.097 1316.12 261.131 1342.64 261.131ZM1302.18 284.964V509.805H1383.1V284.964H1302.18Z" fill="#3A3A3A"/>
<path d="M1542.84 509.805V352.417H1607.58V284.964H1542.84V281.817C1542.84 260.232 1555.88 248.09 1577.01 248.09C1588.25 248.09 1601.74 251.238 1612.53 257.084V183.786C1601.29 178.839 1584.65 176.141 1569.37 176.141C1496.09 176.141 1461.92 223.808 1461.92 283.615V284.964H1423.71V352.417H1461.92V509.805H1542.84Z" fill="#3A3A3A"/>
<path d="M1767.27 517C1782.56 517 1803.24 513.852 1814.48 507.557V436.057C1803.69 441.903 1786.15 445.051 1774.91 445.051C1753.78 445.051 1740.75 432.91 1740.75 411.325V352.417H1814.48V284.964H1740.75V228.754H1659.82V284.964H1621.61V352.417H1659.82V414.023C1659.82 473.831 1693.99 517 1767.27 517Z" fill="#3A3A3A"/>
<path d="M1993.12 515.201C2087.98 515.201 2131.59 462.589 2131.59 372.652V206.27H2048.41V370.404C2048.41 417.171 2030.43 436.507 1993.12 436.507C1956.25 436.507 1938.27 417.171 1938.27 370.404V206.27H1855.1V372.652C1855.1 462.589 1897.81 515.201 1993.12 515.201Z" fill="#3A3A3A"/>
<path d="M2196.83 206.27V509.805H2280V206.27H2196.83Z" fill="#3A3A3A"/>
<defs>
<linearGradient id="paint0_linear" x1="0.890137" y1="61.2109" x2="122.72" y2="61.2109" gradientUnits="userSpaceOnUse">
<stop stop-color="#434343"/>
<stop offset="1"/>
</linearGradient>
<linearGradient id="paint1_linear" x1="392.169" y1="455.157" x2="514" y2="455.157" gradientUnits="userSpaceOnUse">
<stop stop-color="#434343"/>
<stop offset="1"/>
</linearGradient>
<linearGradient id="paint2_linear" x1="195.64" y1="357.34" x2="513.11" y2="357.34" gradientUnits="userSpaceOnUse">
<stop stop-color="#434343"/>
<stop offset="1"/>
</linearGradient>
<linearGradient id="paint3_linear" x1="257.445" y1="0.295898" x2="257.445" y2="515.185" gradientUnits="userSpaceOnUse">
<stop stop-color="#F9D523"/>
<stop offset="1" stop-color="#FAA328"/>
</linearGradient>
<linearGradient id="paint4_linear" x1="0" y1="159.476" x2="318.359" y2="159.476" gradientUnits="userSpaceOnUse">
<stop stop-color="#434343"/>
<stop offset="1"/>
</linearGradient>
<linearGradient id="paint5_linear" x1="2438.5" y1="-37.9996" x2="545" y2="150" gradientUnits="userSpaceOnUse">
<stop stop-color="#F9D523"/>
<stop offset="1" stop-color="#FAA328"/>
</linearGradient>
<linearGradient id="paint6_linear" x1="2438.5" y1="-37.9996" x2="545" y2="150" gradientUnits="userSpaceOnUse">
<stop stop-color="#F9D523"/>
<stop offset="1" stop-color="#FAA328"/>
</linearGradient>
<linearGradient id="paint7_linear" x1="2438.5" y1="-37.9996" x2="545" y2="150" gradientUnits="userSpaceOnUse">
<stop stop-color="#F9D523"/>
<stop offset="1" stop-color="#FAA328"/>
</linearGradient>
<linearGradient id="paint8_linear" x1="2438.5" y1="-37.9996" x2="545" y2="150" gradientUnits="userSpaceOnUse">
<stop stop-color="#F9D523"/>
<stop offset="1" stop-color="#FAA328"/>
</linearGradient>
<linearGradient id="paint9_linear" x1="2438.5" y1="-37.9996" x2="545" y2="150" gradientUnits="userSpaceOnUse">
<stop stop-color="#F9D523"/>
<stop offset="1" stop-color="#FAA328"/>
</linearGradient>
<linearGradient id="paint10_linear" x1="2438.5" y1="-37.9996" x2="545" y2="150" gradientUnits="userSpaceOnUse">
<stop stop-color="#F9D523"/>
<stop offset="1" stop-color="#FAA328"/>
</linearGradient>
<linearGradient id="paint11_linear" x1="2438.5" y1="-37.9996" x2="545" y2="150" gradientUnits="userSpaceOnUse">
<stop stop-color="#F9D523"/>
<stop offset="1" stop-color="#FAA328"/>
</linearGradient>
<linearGradient id="paint12_linear" x1="2438.5" y1="-37.9996" x2="545" y2="150" gradientUnits="userSpaceOnUse">
<stop stop-color="#F9D523"/>
<stop offset="1" stop-color="#FAA328"/>
</linearGradient>
<linearGradient id="paint13_linear" x1="2438.5" y1="-37.9996" x2="545" y2="150" gradientUnits="userSpaceOnUse">
<stop stop-color="#F9D523"/>
<stop offset="1" stop-color="#FAA328"/>
</linearGradient>
<linearGradient id="paint14_linear" x1="2438.5" y1="-37.9996" x2="545" y2="150" gradientUnits="userSpaceOnUse">
<stop stop-color="#F9D523"/>
<stop offset="1" stop-color="#FAA328"/>
</linearGradient>
<linearGradient id="paint15_linear" x1="2438.5" y1="-37.9996" x2="545" y2="150" gradientUnits="userSpaceOnUse">
<stop stop-color="#F9D523"/>
<stop offset="1" stop-color="#FAA328"/>
</linearGradient>
<linearGradient id="paint16_linear" x1="2438.5" y1="-37.9996" x2="545" y2="150" gradientUnits="userSpaceOnUse">
<stop stop-color="#F9D523"/>
<stop offset="1" stop-color="#FAA328"/>
</linearGradient>
<linearGradient id="paint17_linear" x1="2438.5" y1="-37.9996" x2="545" y2="150" gradientUnits="userSpaceOnUse">
<stop stop-color="#F9D523"/>
<stop offset="1" stop-color="#FAA328"/>
</linearGradient>
<linearGradient id="paint18_linear" x1="2438.5" y1="-37.9996" x2="545" y2="150" gradientUnits="userSpaceOnUse">
<stop stop-color="#F9D523"/>
<stop offset="1" stop-color="#FAA328"/>
</linearGradient>
<linearGradient id="paint19_linear" x1="2438.5" y1="-37.9996" x2="545" y2="150" gradientUnits="userSpaceOnUse">
<stop stop-color="#F9D523"/>
<stop offset="1" stop-color="#FAA328"/>
</linearGradient>
<linearGradient id="paint20_linear" x1="2438.5" y1="-37.9996" x2="545" y2="150" gradientUnits="userSpaceOnUse">
<stop stop-color="#F9D523"/>
<stop offset="1" stop-color="#FAA328"/>
</linearGradient>
<linearGradient id="paint21_linear" x1="2438.5" y1="-37.9996" x2="545" y2="150" gradientUnits="userSpaceOnUse">
<stop stop-color="#F9D523"/>
<stop offset="1" stop-color="#FAA328"/>
</linearGradient>
<linearGradient id="paint22_linear" x1="2438.5" y1="-37.9996" x2="545" y2="150" gradientUnits="userSpaceOnUse">
<stop stop-color="#F9D523"/>
<stop offset="1" stop-color="#FAA328"/>
</linearGradient>
<linearGradient id="paint23_linear" x1="2438.5" y1="-37.9996" x2="545" y2="150" gradientUnits="userSpaceOnUse">
<stop stop-color="#F9D523"/>
<stop offset="1" stop-color="#FAA328"/>
</linearGradient>
<linearGradient id="paint24_linear" x1="2438.5" y1="-37.9996" x2="545" y2="150" gradientUnits="userSpaceOnUse">
<stop stop-color="#F9D523"/>
<stop offset="1" stop-color="#FAA328"/>
</linearGradient>
<linearGradient id="paint25_linear" x1="2438.5" y1="-37.9996" x2="545" y2="150" gradientUnits="userSpaceOnUse">
<stop stop-color="#F9D523"/>
<stop offset="1" stop-color="#FAA328"/>
</linearGradient>
<linearGradient id="paint26_linear" x1="2438.5" y1="-37.9996" x2="545" y2="150" gradientUnits="userSpaceOnUse">
<stop stop-color="#F9D523"/>
<stop offset="1" stop-color="#FAA328"/>
</linearGradient>
</defs>
</svg>
